<svg width="157" height="35" viewBox="0 0 157 35" fill="none" xmlns="http://www.w3.org/2000/svg">
<path d="M24.5605 15.1152C24.5605 18.1387 24.0215 20.6758 22.9434 22.7266C21.877 24.7656 20.3066 26.2598 18.2324 27.209L24.4199 34.1172H17.4414L12.7305 28.3516H12.3262C8.38867 28.3516 5.36523 27.209 3.25586 24.9238C1.14648 22.6387 0.0917969 19.3574 0.0917969 15.0801C0.0917969 10.8027 1.14648 7.53906 3.25586 5.28906C5.37695 3.02734 8.41211 1.89648 12.3613 1.89648C16.3105 1.89648 19.3281 3.0332 21.4141 5.30664C23.5117 7.58008 24.5605 10.8496 24.5605 15.1152ZM5.80469 15.1152C5.80469 17.9863 6.34961 20.1484 7.43945 21.6016C8.5293 23.0547 10.1582 23.7812 12.3262 23.7812C16.6738 23.7812 18.8477 20.8926 18.8477 15.1152C18.8477 9.32617 16.6855 6.43164 12.3613 6.43164C10.1934 6.43164 8.55859 7.16406 7.45703 8.62891C6.35547 10.082 5.80469 12.2441 5.80469 15.1152ZM43.3867 28L42.666 25.4863H42.3848C41.8105 26.4004 40.9961 27.1094 39.9414 27.6133C38.8867 28.1055 37.6855 28.3516 36.3379 28.3516C34.0293 28.3516 32.2891 27.7363 31.1172 26.5059C29.9453 25.2637 29.3594 23.4824 29.3594 21.1621V8.34766H34.7207V19.8262C34.7207 21.2441 34.9727 22.3105 35.4766 23.0254C35.9805 23.7285 36.7832 24.0801 37.8848 24.0801C39.3848 24.0801 40.4688 23.582 41.1367 22.5859C41.8047 21.5781 42.1387 19.9141 42.1387 17.5938V8.34766H47.5V28H43.3867ZM52.8965 3.26758C52.8965 1.52148 53.8691 0.648438 55.8145 0.648438C57.7598 0.648438 58.7324 1.52148 58.7324 3.26758C58.7324 4.09961 58.4863 4.75 57.9941 5.21875C57.5137 5.67578 56.7871 5.9043 55.8145 5.9043C53.8691 5.9043 52.8965 5.02539 52.8965 3.26758ZM58.4863 28H53.125V8.34766H58.4863V28ZM77.8047 28H62.2832V24.8359L71.3887 12.4434H62.8281V8.34766H77.4883V11.8281L68.6289 23.9043H77.8047V28ZM79.9668 20.5469V16.1523H89.4062V20.5469H79.9668ZM104.242 7.97852C106.562 7.97852 108.379 8.88672 109.691 10.7031C111.004 12.5078 111.66 14.9863 111.66 18.1387C111.66 21.3848 110.98 23.8984 109.621 25.6797C108.273 27.4609 106.434 28.3516 104.102 28.3516C101.793 28.3516 99.9824 27.5137 98.6699 25.8379H98.3008L97.4043 28H93.3086V0.648438H98.6699V7.01172C98.6699 7.82031 98.5996 9.11523 98.459 10.8965H98.6699C99.9238 8.95117 101.781 7.97852 104.242 7.97852ZM102.52 12.2676C101.195 12.2676 100.229 12.6777 99.6191 13.498C99.0098 14.3066 98.6934 15.6484 98.6699 17.5234V18.1035C98.6699 20.2129 98.9805 21.7246 99.6016 22.6387C100.234 23.5527 101.23 24.0098 102.59 24.0098C103.691 24.0098 104.564 23.5059 105.209 22.498C105.865 21.4785 106.193 20.002 106.193 18.0684C106.193 16.1348 105.865 14.6875 105.209 13.7266C104.553 12.7539 103.656 12.2676 102.52 12.2676ZM120.361 18.1387C120.361 20.084 120.678 21.5547 121.311 22.5508C121.955 23.5469 122.998 24.0449 124.439 24.0449C125.869 24.0449 126.895 23.5527 127.516 22.5684C128.148 21.5723 128.465 20.0957 128.465 18.1387C128.465 16.1934 128.148 14.7344 127.516 13.7617C126.883 12.7891 125.846 12.3027 124.404 12.3027C122.975 12.3027 121.943 12.7891 121.311 13.7617C120.678 14.7227 120.361 16.1816 120.361 18.1387ZM133.949 18.1387C133.949 21.3379 133.105 23.8398 131.418 25.6445C129.73 27.4492 127.381 28.3516 124.369 28.3516C122.482 28.3516 120.818 27.9414 119.377 27.1211C117.936 26.2891 116.828 25.0996 116.055 23.5527C115.281 22.0059 114.895 20.2012 114.895 18.1387C114.895 14.9277 115.732 12.4316 117.408 10.6504C119.084 8.86914 121.439 7.97852 124.475 7.97852C126.361 7.97852 128.025 8.38867 129.467 9.20898C130.908 10.0293 132.016 11.207 132.789 12.7422C133.562 14.2773 133.949 16.0762 133.949 18.1387ZM142.404 17.9629L136.076 8.34766H142.158L145.973 14.6055L149.822 8.34766H155.904L149.506 17.9629L156.203 28H150.104L145.973 21.2676L141.824 28H135.742L142.404 17.9629Z" fill="url(#paint0_linear_12386_56)"/>
<defs>
<linearGradient id="paint0_linear_12386_56" x1="-2" y1="44.5" x2="166" y2="0.999985" gradientUnits="userSpaceOnUse">
<stop stop-color="#8F00FF"/>
<stop offset="1" stop-color="#00A3FF"/>
</linearGradient>
</defs>
</svg>
